# xmcd
#
# Track frame offsets: 
#        150
#        11718
#        24358
#        36943
#        48581
#        58589
#        71211
#        84449
#        95901
#        108205
#        121234
#        133320
#        148442
#        159663
#        170500
#        182490
#        197234
#        209699
#        221027
#        234987
#
# Disc length: 3357 seconds
#
# Revision: 0
# Processed by: cddbd v1.4PL0 Copyright (c) Steve Scherf et al.
# Submitted via: ExactAudioCopy v0.95a3
#
DISCID=330d1b14
DTITLE=Various Artist - Forever Gold: Gold Collection: Number 1 Country Hits
DYEAR=2002
DGENRE=Country
TTITLE0=Lynn Anderson - You're My Man
TTITLE1=T.G Shepard - Trying To Beat The Morning Home
TTITLE2=Faron Young - It's Four In The Morning
TTITLE3=Donna Fargo - Funny Face
TTITLE4=Faron Young - Hello Walls
TTITLE5=Jack Greene - All The Time
TTITLE6=Lynn Anderson - Rose Garden
TTITLE7=Donna Fargo - Happiest Girl In The Whole U. S. A., The
TTITLE8=Jeanne Pruett - Satin Sheets
TTITLE9=T.G. Sheppard - Devil In The Bottle
TTITLE10=Freddy Fender - Before The Next Teardrop Falls (Live)
TTITLE11=B.J. Thomas - Another Somebody Done Somebody Wrong Song
TTITLE12=Jack Greene - There Goes My Everything
TTITLE13=David Houston - Baby Baby (I Know You're A Lady)
TTITLE14=Lynn Anderson - How Can I Unlove You
TTITLE15=Don Gibson - Woman (Sensuous Woman)
TTITLE16=Porter Wagoner - Satisfied Mind
TTITLE17=Kitty Wells - Heartbreak U. S. A.
TTITLE18=Jack Greene - You Are My Treasure
TTITLE19=T.G. Shepard - Last Cheaters Waltz
EXTD=
EXTT0=
EXTT1=
EXTT2=
EXTT3=
EXTT4=
EXTT5=
EXTT6=
EXTT7=
EXTT8=
EXTT9=
EXTT10=
EXTT11=
EXTT12=
EXTT13=
EXTT14=
EXTT15=
EXTT16=
EXTT17=
EXTT18=
EXTT19=
PLAYORDER=
